<svg width="654" height="160" fill="none" xmlns="http://www.w3.org/2000/svg"><path d="M264.191 127.968h23.57l-19.506-38.876c11.785-4.2 18.964-14.088 18.964-27.092 0-17.068-12.191-30.072-31.155-30.072H218v96.04h21.402v-35.76h7.586l17.203 35.76zm-24.789-54.183V50.486H252c8.805 0 13.546 4.47 13.546 11.65 0 6.772-4.741 11.649-13.546 11.649h-12.598zm56.915 35.625c0 10.702 8.534 20.455 23.299 20.455 8.94 0 15.442-3.793 18.964-9.483 0 4.606.542 7.044.677 7.586h18.558c-.135-.677-.813-5.147-.813-10.43V84.622c0-13.817-7.992-26.008-29.8-26.008-19.777 0-28.718 12.733-29.53 22.35l17.88 3.657c.406-5.011 4.335-9.888 11.514-9.888 6.502 0 9.888 3.386 9.888 7.315 0 2.303-1.219 4.064-4.876 4.605l-15.849 2.439c-11.107 1.625-19.912 8.398-19.912 20.318zm28.311 5.554c-5.689 0-7.992-3.386-7.992-6.908 0-4.741 3.251-6.773 7.585-7.45l12.733-2.032v2.98c0 10.43-6.231 13.41-12.326 13.41zm92.504-54.319c-1.355-.406-3.386-.677-5.418-.677-5.419 0-13.953 2.167-17.474 9.753v-9.076h-19.913v67.323h20.59V98.574c0-13.41 7.45-18.287 15.713-18.287 2.032 0 4.199.135 6.502.677V60.645zm33.079 67.323V60.645h-20.589v67.323h20.589zm-22.35-87.912c0 6.637 5.418 12.056 11.92 12.056 6.773 0 12.191-5.419 12.191-12.056 0-6.638-5.418-12.056-12.191-12.056-6.502 0-11.92 5.418-11.92 12.056zm60.3 87.912v-7.586c3.115 5.148 10.024 9.076 18.964 9.076 18.829 0 32.103-14.765 32.103-35.354 0-20.184-11.784-35.084-31.29-35.084-9.212 0-16.662 3.793-19.506 7.992V29.896h-20.184v98.072h19.913zm30.478-33.729c0 11.243-7.179 16.797-15.171 16.797-7.993 0-15.307-5.689-15.307-16.797 0-11.378 7.314-16.661 15.307-16.661 7.992 0 15.171 5.283 15.171 16.661zm54.464 33.729V29.896h-20.59v98.072h20.59zm33.747-41.721c.406-5.012 4.741-11.379 13.41-11.379 9.753 0 13.275 6.232 13.546 11.379H606.85zm28.446 17.474c-1.897 5.283-6.096 8.805-13.546 8.805-7.992 0-14.9-5.418-15.307-13.004h46.869c.135-.407.406-3.522.406-6.367 0-21.673-12.868-34.541-33.729-34.541-17.474 0-33.594 13.816-33.594 35.49 0 22.621 16.526 35.896 35.084 35.896 17.068 0 27.769-9.753 31.02-21.402l-17.203-4.877z" fill="#000"/><rect width="160" height="160" rx="27.75" fill="#FEDA03"/><path d="M110.401 79.414c5.04-1.31 9.524-5.08 9.524-12.659 0-12.619-10.714-15.555-24.445-15.555H40.798v56.825h23.016V88.739h27.301c4.207 0 6.667 1.667 6.667 5.794v13.492h23.016V93.819c0-7.738-4.365-12.62-10.397-14.405zm-18.889-5.992H63.814v-5.556h27.698c3.016 0 4.841.397 4.841 2.778 0 2.381-1.825 2.778-4.84 2.778z" fill="#000"/></svg>