<svg width="910" height="921" viewBox="0 0 910 921" fill="none" xmlns="http://www.w3.org/2000/svg">
<g clip-path="url(#clip0_2_38)">
<path d="M594.176 157.582C601.147 161.607 608.345 165.82 615.622 169.895C616.703 170.394 617.902 170.582 619.084 170.439C631.868 169.436 643.628 172.288 653.985 179.989C655.851 181.377 657.184 183.568 658.54 185.54C663.575 192.819 668.576 200.156 673.544 207.551C678.111 214.402 682.533 221.343 687.012 228.224C688.44 230.411 687.244 231.822 685.493 232.855C684.002 233.738 683.984 234.409 684.969 235.763C689.245 241.696 693.479 247.604 697.648 253.602C698.651 255.025 699.187 257.377 700.463 257.826C701.74 258.274 703.49 256.444 705.137 256.09C709.93 255.07 714.766 255.033 719.378 256.945C730.363 261.498 736.895 270.304 741.673 280.729C741.879 281.172 742.14 281.599 742.369 282.043C747.196 291.562 750.457 301.655 753.327 311.903C754.236 315.129 755.204 318.332 756.054 321.56C758.131 329.583 760.325 337.582 762.147 345.666C763.68 352.532 761.126 358.656 757.355 364.146C754.566 368.217 751.05 371.787 748.028 375.701C747.248 376.761 746.861 378.061 746.934 379.376C747.348 383.299 748.184 387.211 748.691 391.094C748.896 392.598 749.498 392.935 750.865 392.407C751.883 392.025 752.969 391.844 754.013 391.534C756.966 390.641 759.389 392.224 759.946 395.26C761.167 401.931 762.438 408.596 763.759 415.255C767.182 432.566 767.945 450.004 764.841 467.38C762.416 481.369 756.171 494.415 746.795 505.077C745.173 506.947 743.767 509.102 742.001 510.761C738.921 513.695 740.723 517.333 740.28 520.622C740.233 522.112 740.348 523.603 740.622 525.069C744.425 524.482 745.378 525.332 745.353 528.874C745.334 535.688 745.467 542.497 745.44 549.305C745.34 570.378 744.769 591.445 740.27 612.138C737.063 626.914 731.28 640.55 719.894 651.111C713.949 656.628 707.882 662.016 701.862 667.444C689.66 678.458 677.589 689.606 665.206 700.413C655.351 709.122 645.211 717.586 634.893 725.716C623.311 734.837 611.677 743.928 599.528 752.271C589.307 759.314 578.465 765.514 567.659 771.63C563.071 774.236 557.983 776.229 552.413 775.876C546.536 775.497 540.664 774.867 534.765 774.925C531.906 774.937 528.981 775.962 526.239 776.931C522.156 778.384 518.205 780.167 514.246 781.923C514.001 782.139 513.814 782.414 513.704 782.721C513.593 783.028 513.561 783.359 513.612 783.682C514.972 787.226 514.079 789.493 510.415 790.519C507.509 791.426 504.509 791.999 501.473 792.227C490.839 792.646 480.205 793.065 469.614 792.989C459.803 792.902 449.985 792.326 440.197 791.64C429.236 790.866 418.283 789.796 407.346 788.701C401.178 788.084 395.024 787.222 388.896 786.316C382.5 785.395 376.01 784.396 369.625 783.135C361.903 781.609 354.187 779.995 346.577 778.015C337.039 775.556 327.583 772.914 318.127 769.972C309.083 767.176 300.146 764.036 291.239 760.823C289.902 760.339 288.723 758.781 287.989 757.433C286.962 755.571 286.487 753.414 285.658 751.469C284.915 749.902 283.65 748.643 282.08 747.907C280.509 747.171 278.732 747.004 277.052 747.436C272.932 748.452 269.374 748.395 266.073 744.792C262.773 741.189 258.534 738.349 254.864 735.006C246.917 727.751 238.983 720.514 231.2 713.053C224.942 707.053 218.841 700.887 212.898 694.554C208.397 689.75 203.818 684.9 200.129 679.491C196.114 673.605 191.395 667.959 189.659 660.745C189.195 658.849 188.89 656.917 188.539 655.005C187.774 650.869 188.905 649.871 193.877 649.439C194.179 649.417 194.478 649.439 194.778 649.439C198.664 649.489 198.594 649.529 196.791 646.052C192.722 638.207 188.698 630.329 184.72 622.42C184.287 621.57 184.187 620.543 183.764 619.675C182.048 616.167 180.598 613.159 175.36 613.252C170.121 613.345 165.954 609.543 162.508 605.832C155.81 598.593 148.975 591.391 143.151 583.479C137.848 576.284 134.725 567.794 132.739 558.993C131.923 555.346 130.669 551.758 130.12 548.07C128.658 538.322 126.789 528.56 126.352 518.736C125.831 507.119 126.545 495.441 126.9 483.787C127.16 475.47 127.584 467.181 128.173 458.922C128.544 453.64 128.501 448.234 133.215 444.19C134.259 443.28 133.739 440.462 133.788 438.516C133.902 436.344 133.818 434.166 133.538 432.009C133.374 431.503 133.109 431.035 132.759 430.635C132.408 430.234 131.98 429.909 131.501 429.678C127.133 427.503 126.844 427.244 127.638 422.368C129.449 411.231 130.976 400.046 133.333 389.005C138.385 365.295 148.704 343.782 161.879 323.561C162.782 322.177 163.768 320.69 165.969 321.857C166.385 322.097 167.571 321.362 168.13 320.795C171.38 317.464 174.734 314.216 177.683 310.607C179.511 308.383 179.062 305.399 177.574 303.177C176.085 300.955 176.283 299.233 177.123 296.878C183.134 279.795 190.872 263.369 200.217 247.857C207.381 236.272 215.857 225.551 225.477 215.907C234.797 206.404 244.787 197.68 256.214 190.848C261.234 187.834 266.884 185.808 272.418 183.783C274.829 182.866 277.574 183.111 279.2 186.036C279.393 186.402 280.755 186.542 281.292 186.251C284.857 184.337 288.257 182.189 291.878 180.296C300.619 175.736 306.204 167.483 313.979 161.717C321.753 155.952 329.407 149.575 338.45 145.651C347.034 141.923 355.728 138.305 364.592 135.433C373.655 132.523 382.859 130.071 392.169 128.087C399.764 126.465 407.45 125.307 415.186 124.621C420.592 124.117 426.1 124.618 431.544 124.828C432.043 124.841 432.532 124.965 432.977 125.19C433.422 125.415 433.812 125.736 434.118 126.129C435.269 128.757 437.397 127.93 439.269 127.948C446.551 127.834 453.87 127.938 461.129 127.406C464.305 127.184 467.362 125.589 470.483 124.723C474.626 123.547 478.741 122.02 482.98 121.419C490.403 120.384 497.922 120.23 505.381 120.958C515.805 121.964 524.774 126.889 534.341 130.138C547.469 134.6 560.445 139.505 573.508 144.16C580.118 146.51 586.813 148.654 593.417 151.036C594.715 151.508 596.45 152.683 596.631 153.769C596.812 154.855 595.284 156.062 594.176 157.582Z" fill="#D2400A"/>
<path d="M588.316 159.511C587.831 159.262 587.298 159.12 586.753 159.094C586.208 159.068 585.664 159.159 585.158 159.361C581.088 161.631 576.868 163.72 573.255 166.577C564.698 173.299 556.234 180.179 548.128 187.438C538.171 196.365 528.425 205.565 518.901 214.962C505.737 227.881 492.751 240.995 479.858 254.186C474.478 259.705 469.027 265.126 464.806 271.776C457.016 284.068 447.903 295.353 435.293 303.234C427.307 308.207 418.776 310.222 409.722 306.184C396.711 300.381 385.569 292.02 375.42 282.038C368.05 274.804 361.671 267.172 358.993 256.931C357.529 251.467 357.858 246.276 360.682 241.405C363.692 235.912 366.987 230.58 370.552 225.43C382.045 209.722 393.626 194.065 405.614 178.7C412.843 169.233 420.586 160.169 428.807 151.549C435.559 144.594 443.48 138.774 450.7 132.608C450.396 132.497 450.072 132.451 449.749 132.475C445.515 132.629 441.293 132.743 437.07 133.076C436.18 133.334 435.41 133.901 434.9 134.675C431.391 139.093 428.142 143.741 424.445 148.003C418.916 154.361 412.858 160.274 407.422 166.708C394.886 181.582 382.605 196.674 370.191 211.654C358.345 225.946 346.467 240.219 334.557 254.474C333.595 255.566 332.337 256.356 330.935 256.747C324.355 258.445 317.716 259.923 311.114 261.539C309.748 261.905 308.468 262.482 306.622 263.16C312.321 266.728 317.467 270.056 322.746 273.231C325.172 274.69 325.68 276.149 324.315 278.814C319.249 288.509 314.36 298.296 309.477 308.075C298.338 330.407 287.165 352.72 276.126 375.099C267.946 391.669 259.849 408.286 251.835 424.953C247.485 433.988 243.403 443.178 238.974 452.168C238.138 453.857 236.46 455.763 234.772 456.266C232.058 457.105 229.183 457.286 226.385 456.793C212.525 454.154 199.822 447.288 190.021 437.138C186 433.003 185.394 428.312 186.36 423.2C189.827 404.914 195.871 387.365 201.945 369.845C203.884 364.267 203.989 364.304 209.896 365.093C210.647 365.192 211.453 364.976 212.188 365.123C219.632 366.65 227.062 368.261 234.503 369.774C239.101 370.708 243.722 371.505 248.338 372.369L248.603 371.552C247.096 370.682 245.639 369.725 244.091 368.947C232.789 363.322 221.495 357.703 210.152 352.17C207.885 351.057 206.935 349.862 208.182 347.303C215.416 332.473 222.541 317.592 229.775 302.762C230.277 301.611 231.163 300.669 232.283 300.099C236.686 298.473 241.232 297.079 245.76 295.756C253.818 293.399 261.901 291.218 269.979 288.827C274.398 287.533 278.769 286.062 283.231 284.654C279.888 279.364 279.51 279.099 275.036 280.188C268.321 281.819 261.644 283.564 254.95 285.277C251.511 286.155 248.12 287.107 244.62 287.869C243.298 288.019 241.964 288.024 240.641 287.882C240.858 286.506 240.71 284.942 241.322 283.783C258.156 251.732 275.022 219.712 291.921 187.723C292.281 187.099 292.48 186.394 293.114 184.855C289.03 187.289 285.871 189.541 282.412 191.112C279.363 192.493 278.105 194.792 276.944 197.643C275.373 201.511 273.533 205.264 271.44 208.876C266.37 217.658 260.697 226.103 255.88 235.007C242.513 259.76 228.84 284.382 216.478 309.634C208.599 325.792 201.889 342.493 196.399 359.611C188.987 382.628 183.272 406.187 176.823 429.518C176.112 432.11 174.539 433.973 171.826 434.473C165.624 435.615 159.805 434.854 154.915 430.484C153.992 429.662 152.882 428.525 152.751 427.433C152.077 421.859 150.891 416.174 151.4 410.672C152.391 400.055 154.04 389.46 156.088 378.991C159.348 362.306 163.453 345.855 172.456 331.041C174.694 327.345 175.795 322.958 177.415 318.893C177.189 318.763 176.921 318.689 176.68 318.585C172.745 322.64 168.789 326.673 164.905 330.781C164.356 331.472 163.967 332.277 163.764 333.136C162.012 338.837 160.265 344.53 158.523 350.214C151.604 373.319 145.67 396.636 143.967 420.826C143.741 424.078 143.665 427.349 143.189 430.573C143.01 431.624 141.411 433.333 140.846 433.192C137.919 432.461 138.318 434.411 138.296 435.969C138.274 437.527 138.512 439.154 138.504 440.708C138.496 442.262 139.059 442.807 140.623 443.259C148.03 445.388 155.367 448.18 160.632 453.922C165.209 458.874 168.928 464.693 172.562 470.417C173.062 471.399 173.361 472.471 173.44 473.57C173.52 474.669 173.379 475.772 173.025 476.816C167.767 491.424 163.224 506.191 163.29 521.898C163.313 526.958 164.366 532.034 164.914 537.085L165.87 537.048C166.04 536.315 166.218 535.586 166.357 534.846C169.483 517.691 172.446 500.499 175.825 483.386C177.099 477.785 178.818 472.294 180.964 466.966C181.324 466.184 181.852 465.491 182.512 464.937C183.171 464.384 183.944 463.983 184.776 463.763C187.313 463.368 190.277 463.255 192.593 464.223C200.446 467.521 208.152 471.174 215.757 475.022C218.549 476.426 220.942 478.662 223.398 480.668C224.923 481.907 225.39 483.458 225.122 485.682C223.793 494.984 219.586 503.27 216.189 511.794C210.929 525.085 205.092 538.215 200.971 551.852C196.491 566.713 193.756 582.108 190.098 597.224C189.019 601.693 188.721 606.51 185.463 610.252C185.155 610.605 185.294 611.586 185.539 612.12C188.06 617.455 190.558 622.789 193.231 628.039C196.365 634.19 199.859 640.179 202.813 646.423C203.85 648.626 204.387 650.115 207.273 649.217C208.218 648.92 209.74 649.764 210.751 650.452C217.271 654.92 223.653 659.586 230.216 663.999C238.963 669.869 247.847 675.46 256.619 681.367C258.755 682.929 260.715 684.718 262.463 686.705C265.888 690.333 269.056 694.206 272.556 697.763C274.418 699.658 276.548 699.109 278.232 697.172C279.025 696.281 279.713 695.303 280.284 694.257C282.172 690.728 282.825 690.516 286.236 692.428C308.813 705.024 331.331 717.702 353.989 730.137C357.757 732.126 360.851 735.187 362.883 738.932C363.626 740.285 364.229 741.741 365.132 743.036C367.899 747.105 370.716 751.145 373.618 755.118C374.347 755.861 375.18 756.494 376.091 756.996C376.425 756.083 376.62 755.125 376.669 754.154C376.272 749.922 375.783 745.702 375.202 741.495C374.75 738.278 376.187 736.59 378.978 737.416C384.554 739.05 390.128 740.728 395.7 742.452C405.487 745.5 415.293 748.595 425.12 751.735C436.154 755.243 447.173 758.798 458.199 762.3C467.33 765.205 476.501 767.96 485.593 770.992C492.643 773.342 499.587 776.034 506.646 778.528C507.352 778.785 508.283 779.173 508.867 778.921C513.188 777.097 517.454 775.127 521.732 773.197L521.662 772.96C517.943 772.141 514.197 771.468 510.534 770.473C501.469 768.034 492.403 765.617 483.418 762.9C472.464 759.532 461.595 755.878 450.715 752.264C446.17 750.795 441.748 749.015 437.261 747.406C432.305 745.63 427.426 743.541 422.329 742.249C417.679 741.043 413.779 739.218 410.961 735.178C407.126 729.661 410.623 720.884 417.327 719.373C425.964 717.432 434.585 715.481 443.222 713.401C452.893 711.051 462.54 708.642 472.144 706.046C481.274 703.566 490.375 700.949 499.447 698.196C508.519 695.443 517.434 692.569 526.192 689.573C534.813 686.641 543.383 683.656 551.755 680.176C564.97 674.688 578.16 669.082 591.07 662.922C604.629 656.455 617.923 649.431 631.175 642.337C636.501 639.491 641.571 636.19 646.328 632.471C656.69 624.351 666.868 616.009 676.862 607.445C685.812 599.784 694.621 591.926 703.108 583.766C714.735 572.592 724.618 559.735 732.426 545.625C734.727 541.48 737.235 537.536 736.432 532.326C735.815 528.275 735.944 524.112 735.679 519.19C733.763 521.409 732.391 523.065 730.967 524.633C723.56 532.781 716.293 541.068 708.658 548.992C701.573 556.345 694.553 563.943 686.629 570.268C677.914 577.222 668.227 582.98 658.848 589.066C651.623 593.74 644.247 598.176 636.875 602.603C624.926 609.78 612.941 616.879 599.4 620.793C593.291 622.554 589.474 621.066 586.441 615.378C583.617 610.11 580.757 604.844 577.756 599.682C574.332 593.791 570.381 588.196 567.323 582.112C563.476 574.556 557.78 568.9 551.094 564.001C549.177 562.598 547.365 561.058 545.672 559.393C541.088 554.852 540.285 549.123 543.866 543.801C545.984 540.685 548.47 537.836 551.27 535.316C561.399 526.233 572.803 518.88 584.357 511.787C589.832 508.424 595.234 504.949 600.871 501.865C601.673 501.46 602.547 501.218 603.443 501.153C604.339 501.087 605.239 501.2 606.091 501.484C614.864 505.209 623.545 509.252 632.194 513.171C634.785 514.344 637.613 515.145 639.943 516.71C645.521 520.45 650.866 524.552 656.324 528.477C658.7 530.183 661.132 531.83 663.536 533.506C663.651 531.878 663.302 530.25 662.527 528.813C656.502 519.85 650.402 510.935 641.499 504.456C634.776 499.642 627.259 496.048 619.291 493.84C616.425 493.005 616.025 491.238 618.177 489.19C618.672 488.713 619.195 488.267 619.745 487.855C628.118 481.912 636.513 475.958 644.929 469.994C662.717 457.424 680.505 444.854 698.294 432.284C702.721 429.136 707.121 425.834 711.302 422.474C719.84 415.545 727.919 407.992 736.84 401.619C742.537 397.553 746.397 393.846 743.283 386.46C742.793 384.907 742.458 383.31 742.284 381.691C740.964 382.638 739.584 383.527 738.327 384.545C728.309 392.536 717.3 398.963 706.026 404.971C690.949 412.905 676.059 421.156 662.251 431.151C655.512 436.024 648.744 440.927 642.475 446.384C634.05 453.737 626.103 461.642 617.937 469.306C615.833 471.29 614.643 471.191 613.189 468.77C608.223 460.51 603.561 452.045 598.278 443.995C593.189 436.231 587.657 428.753 581.978 421.409C579.88 418.697 577.266 416.427 574.288 414.729C571.252 413.046 567.631 412.399 564.228 411.392C562.573 410.899 560.87 410.608 558.326 410.075C559.269 411.081 559.553 411.43 559.879 411.745C566.103 417.55 571.604 424.084 576.264 431.205C580.257 437.39 584.098 443.637 588.164 449.795C592.557 456.465 597.108 463.042 601.558 469.676C602.56 470.998 603.322 472.486 603.812 474.072C603.908 474.653 603.868 475.249 603.693 475.811C603.519 476.374 603.215 476.889 602.806 477.313C587.651 488.943 572.423 500.498 553.851 506.426C546.474 508.783 539.172 509.151 531.926 506.042C525.938 503.474 521.625 499.044 517.53 494.035C511.979 487.251 505.588 481.159 499.793 474.557C493.551 467.489 488.306 459.773 486.043 450.372C483.57 440.076 485.431 430.573 492.463 422.833C505.552 408.442 518.936 394.327 532.616 380.486C542.022 370.974 551.816 361.791 561.971 353.082C575.712 341.281 589.704 329.707 604.134 318.754C615.625 310.031 627.722 302.038 639.915 294.379C655.299 284.693 671.081 275.618 686.711 266.306C689.16 264.844 691.759 263.562 694.235 262.174C695.736 261.355 696.442 260.551 695.133 258.778C691.571 253.928 688.243 248.912 684.743 244.015C683.139 241.773 681.579 238.194 679.578 237.881C677.399 237.535 674.611 240.083 672.285 241.673C657.578 251.726 642.766 261.58 628.304 272.029C616.021 280.884 603.925 290.055 592.209 299.687C578.449 310.988 564.957 322.651 551.732 334.676C530.381 354.138 510.61 375.182 491.259 396.618C486.032 402.411 481.438 408.869 474.354 412.758C466.859 416.86 459.312 418.173 451.605 413.481C440.704 406.965 431 398.628 422.915 388.834C417.591 382.295 416.642 375.258 420.289 367.803C422.464 363.355 425.249 359.212 427.786 354.938C441.76 331.194 456.515 308.016 472.495 285.499C487.587 264.259 503.531 243.743 521.919 225.215C533.2 213.633 545.482 203.069 558.62 193.646C566.133 188.353 573.823 183.313 581.654 178.47C584.831 176.471 588.268 174.919 591.868 173.859C596.011 172.683 600.397 172.386 604.693 171.645C605.386 171.418 606.044 171.094 606.646 170.682C606.18 170.116 605.648 169.607 605.061 169.167C599.372 165.801 593.894 162.569 588.316 159.511ZM200.9 619.015C196.561 614.87 195.561 609.362 194.926 603.683C193.715 592.8 198.211 583.352 202.019 573.657C206.69 561.747 210.875 549.637 215.629 537.763C220.471 525.698 225.68 513.775 230.919 501.881C231.815 500.23 233.15 498.859 234.777 497.919C244.022 491.906 253.921 490.439 264.423 494.47C271.618 497.227 277.639 501.719 283.088 507.001C285.179 508.97 286.801 511.383 287.832 514.063C288.863 516.744 289.278 519.622 289.045 522.484C288.904 523.738 288.42 524.929 287.646 525.926C272.707 546.168 259.641 567.727 248.611 590.338C242.355 602.973 236.347 615.739 230.226 628.44C229.264 630.448 227.862 631.556 225.486 630.831C219.819 629.106 214.145 627.435 209.343 625.991C205.91 623.177 203.252 621.261 200.9 619.015ZM555.027 588.488C555.767 589.665 556.574 590.798 557.445 591.882C563.398 600.624 568.216 610.088 571.784 620.045C574.897 628.354 575.38 637.016 569.025 644.444C567.097 646.56 564.836 648.348 562.332 649.736C549.424 657.295 536.637 664.981 523.45 671.963C511.063 678.518 498.333 684.447 485.569 690.253C478.02 693.665 470.287 696.656 462.407 699.212C452.678 702.383 442.822 705.133 432.863 707.663C426.775 709.228 420.516 710.129 414.319 711.263C404.253 713.118 394.231 715.196 384.113 716.64C377.587 717.433 371.021 717.849 364.447 717.884C362.885 717.929 361.18 717.002 359.742 716.172C351.662 711.507 343.617 706.782 335.554 702.068C327.326 697.318 325.266 689.027 334.927 682.354C339.562 679.139 344.526 676.427 349.736 674.264C361.952 669.205 374.392 664.678 386.722 659.822C400.486 654.588 413.658 647.915 426.021 639.915C433.108 635.219 440.417 630.779 447.125 625.541C457.969 617.079 468.678 608.39 478.915 599.22C487.84 591.221 495.841 582.203 504.649 574.067C510.104 569.018 516.343 564.653 524.311 564.75C527.755 564.786 531.228 565.73 534.136 566.173C541.828 573.731 550.125 579.48 555.027 588.488ZM489.854 501.093C494.712 505.873 499.059 511.146 502.825 516.826C505.608 521.066 508.503 525.451 509.025 531.006C509.77 539.057 507.21 545.431 501.071 550.443C483.883 564.468 466.663 578.459 449.413 592.418C440.17 599.887 431.006 607.459 421.458 614.498C416.24 618.356 410.284 621.211 404.664 624.525C391.704 632.134 378.727 639.71 365.803 647.375C361.645 649.836 361.16 649.856 357.595 646.632C353.669 643.072 349.667 639.583 345.698 636.057L344.996 636.633C347.415 641.205 349.754 645.812 352.288 650.323C354.048 653.475 353.936 654.288 350.96 656.484C340.731 663.961 330.176 671.043 318.352 675.682C312.443 678.016 306.069 678.931 299.742 678.356C291.987 677.688 285.438 674.011 278.502 671.265C271.565 668.519 264.819 665.364 257.902 662.605C249.808 659.364 245.592 650.626 249.281 642.698C251.333 638.07 254.242 633.873 257.854 630.327C265.58 623.125 274.014 616.678 282.145 609.895C284.012 608.34 285.509 608.708 287.399 610.134C298.528 618.499 309.772 626.723 323.108 631.386C323.372 631.524 323.657 631.618 323.951 631.665C325.324 631.707 326.694 631.713 328.06 631.728C327.503 630.552 327.253 629.125 326.343 628.242C320.805 622.793 316.538 616.404 312.599 609.787C310.841 606.833 309.398 603.69 307.844 600.622C306.854 598.677 308.016 597.385 309.368 596.283C318.029 589.182 326.845 582.252 335.368 574.99C351.223 561.489 366.974 547.893 382.622 534.203C392.702 525.404 402.632 516.426 412.526 507.428C420.227 500.43 427.944 493.443 435.332 486.127C438.754 482.741 443.135 480.489 447.88 479.676C452.624 478.863 457.505 479.528 461.859 481.581C472.192 486.515 481.648 493.106 489.854 501.093ZM420.352 429.154C426.228 434.856 431.844 441.089 434.258 449.388C436.899 458.453 434.538 466.443 428.511 473.101C424.227 477.822 418.947 481.667 414.051 485.826C403.295 494.897 392.517 503.931 381.717 512.93C372.972 520.237 364.187 527.474 355.455 534.799C337.835 549.583 320.24 564.359 302.67 579.125C293.178 587.085 283.968 595.417 274.011 602.763C269.575 606.067 263.842 607.977 258.411 609.483C252.98 610.989 249.547 607.056 251.381 601.96C252.892 597.763 255.538 593.899 258.161 590.217C263.863 582.1 270.34 574.501 275.623 566.131C287.885 546.733 299.902 527.159 311.502 507.367C323.884 486.261 336.632 465.4 351.242 445.776C356.007 439.382 362.051 433.934 367.609 428.147C371.652 423.923 375.909 419.891 380.006 415.675C385.273 410.252 390.395 409.26 397.123 412.567C398.555 413.267 399.877 414.157 401.254 414.952L401.527 414.579C407.855 419.398 414.687 423.666 420.352 429.154ZM370.47 296.951C382.383 305.677 394.053 314.724 405.945 323.506C408.318 325.257 408.511 326.743 407.166 329.211C396.923 347.973 386.78 366.782 376.594 385.565C374.509 389.396 374.23 389.419 370.079 387.669C364.879 385.475 359.646 383.378 354.434 381.246L353.641 382.22C354.207 383.719 354.925 385.155 355.785 386.507C358.559 390.002 361.479 393.385 364.432 396.73C366.371 398.911 366.855 400.912 365.039 403.558C355.03 418.133 345.088 432.762 335.21 447.443C327.765 458.479 320.406 469.565 313.016 480.644C310.309 484.984 306.049 488.128 301.104 489.436C298.494 490.04 295.761 489.807 293.29 488.77C280.919 483.059 268.856 476.753 258.612 467.536C253.995 463.392 252.366 458.353 254.864 452.567C259.077 442.609 263.508 432.754 267.844 422.845C268.783 420.719 270.334 420.333 272.442 420.881C275.702 421.735 279.028 422.373 282.299 423.107C282.867 423.133 283.436 423.072 283.986 422.926C283.751 422.352 283.672 421.59 283.273 421.221C280.139 418.789 276.957 416.42 273.736 414.099C270.007 411.438 269.931 411.29 271.986 407.13C287.483 375.328 302.794 343.43 318.599 311.794C322.432 304.135 327.666 297.11 332.734 290.152C336.195 285.418 340.948 283.705 347.163 285.481C355.553 287.887 363.445 291.771 370.47 296.951Z" fill="#E0A351"/>
<path d="M530.422 500.047C526.66 496.443 522.756 492.965 519.169 489.197C513.542 483.303 507.686 477.567 502.759 471.12C498.227 465.189 493.683 459.159 491.086 451.898C489.345 446.985 489.037 441.679 490.196 436.597C491.355 431.516 493.935 426.869 497.634 423.197C501.937 418.984 505.797 414.319 509.923 409.911C514.05 405.504 517.978 401.179 522.152 396.949C528.04 390.972 534.021 385.073 540.027 379.21C544.61 374.732 549.207 370.25 553.963 365.952C561.922 358.746 569.916 351.56 578.09 344.583C584.376 339.228 590.823 334.063 597.429 329.086C606.656 322.185 616.027 315.494 625.449 308.855C630.665 305.181 636.037 301.736 641.443 298.332C651.753 291.861 662.11 285.45 672.511 279.1C677.292 276.179 682.188 273.44 687.103 270.747C692.883 267.595 698.788 264.688 704.549 261.49C706.069 260.668 707.742 260.169 709.463 260.022C711.185 259.876 712.918 260.086 714.555 260.639C721.869 262.752 728.19 267.405 732.383 273.76C738.999 283.7 743.082 294.949 746.823 306.208C749.805 315.204 752.127 324.442 754.528 333.623C756.005 338.686 757.073 343.859 757.721 349.092C758.254 354.769 755.297 359.632 752.004 364.035C744.629 373.888 735.292 381.661 724.889 387.999C713.653 394.86 702.038 401.098 690.524 407.522C675.563 415.915 661.006 424.947 647.813 435.979C637.2 444.862 627.1 454.215 616.711 463.309C616.414 463.426 616.091 463.465 615.774 463.421C615.458 463.378 615.158 463.254 614.902 463.062C613.469 460.745 612.295 458.277 610.915 455.968C607.55 450.457 604.154 444.939 600.644 439.518C597.676 434.918 594.683 430.303 591.405 425.94C588.522 422.035 585.396 418.348 582.174 414.629C578.29 410.077 572.664 408.561 567.294 406.962C562.773 405.795 558.164 404.995 553.513 404.571C552.121 404.402 550.591 405.193 549.138 405.509C549.661 407.104 549.742 409.103 550.774 410.195C555.189 414.868 560.126 419.058 564.408 423.84C567.575 427.354 570.087 431.484 572.752 435.389C576.46 440.786 580.139 446.213 583.726 451.701C588.256 458.635 592.599 465.693 597.19 472.581C598.242 474.158 598.071 474.914 596.658 475.922C591.352 479.672 586.303 483.858 580.766 487.208C572.775 492.029 564.704 496.907 556.157 500.552C548.011 504.082 539.126 505.21 530.422 500.047ZM437.267 347.156C435.327 350.516 433.387 353.876 431.452 357.227C429.517 360.579 427.321 363.803 425.386 367.154C421.131 374.524 421.594 381.062 427.338 387.173C435.203 395.586 444.166 402.901 453.985 408.919C455.862 410.002 457.931 410.71 460.078 411.005C468.556 412.321 474.64 407.623 479.96 402.069C487.626 394.071 494.724 385.536 502.37 377.514C514.991 364.294 527.554 350.993 540.699 338.306C552.736 326.677 565.281 315.548 578.051 304.711C589.611 294.908 601.649 285.657 613.714 276.48C623.733 268.847 633.945 261.479 644.35 254.377C656.111 246.306 668.115 238.595 680.11 230.879C681.921 229.742 681.905 228.809 680.927 227.344C678.246 223.267 675.575 219.173 672.838 215.134C667.984 207.982 663.109 200.845 658.214 193.723C656.178 190.77 654.534 187.338 651.894 185.051C644.352 178.514 635.37 175.511 625.3 175.113C616.718 174.777 608.344 175.842 599.898 176.971C594.461 177.692 589.207 179.425 584.408 182.08C571.985 188.959 560.255 197.02 549.38 206.151C540.955 213.132 532.896 220.543 525.234 228.352C516.328 237.211 507.875 246.513 499.906 256.222C489.593 269.044 479.765 282.307 470.431 295.854C458.878 312.625 448.043 329.891 436.9 346.932L437.267 347.156ZM739.842 540.9C734.456 551.881 727.746 562.161 719.86 571.51C715.198 577.005 710.584 582.597 705.439 587.629C698.827 594.1 691.785 600.138 684.794 606.205C675.218 614.533 665.779 623.021 655.787 630.808C648.148 636.727 640.116 642.12 631.745 646.949C621.059 653.158 609.962 658.679 598.971 664.296C592.843 667.41 586.543 670.181 580.229 672.898C567.916 678.225 555.554 683.536 543.085 688.553C536.432 691.236 529.554 693.35 522.725 695.597C512.467 698.966 502.188 702.269 491.889 705.507C486.365 707.236 480.811 708.914 475.237 710.349C461.758 713.776 448.251 717.105 434.715 720.336C429.564 721.577 424.287 722.398 419.146 723.541C416.31 724.213 414.697 726.169 413.764 728.863C412.832 731.558 414.741 732.811 416.514 734.1C417.452 734.832 418.487 735.429 419.589 735.875C424.419 737.509 429.279 739.091 434.079 740.777C445.636 744.759 457.084 748.932 468.756 752.715C478.871 756.015 489.103 759.012 499.357 761.872C506.914 763.983 514.545 765.906 522.237 767.484C529.619 768.998 537.093 770.091 544.553 771.13C550.641 771.966 556.826 771.692 562.423 769.058C569.026 766.042 575.405 762.559 581.512 758.636C593.412 750.784 605.173 742.713 616.585 734.187C627.997 725.661 639.042 716.53 650.105 707.49C657.062 701.819 663.816 695.881 670.604 689.984C676.538 684.785 682.434 679.494 688.189 674.145C694.728 668.14 701.158 662.003 707.692 656.006C711.756 652.267 716.256 648.953 720.022 644.95C727.391 637.126 731.725 627.458 734.511 617.254C738.732 601.782 739.935 585.86 740.472 569.889C740.691 563.329 740.929 556.758 741.072 550.19C741.136 547.039 740.971 543.884 740.882 540.519C740.17 540.732 739.908 540.765 739.842 540.9ZM275.438 229.371C273.438 232.835 271.359 236.196 269.478 239.694C262.367 253.024 255.309 266.382 248.305 279.766C248.076 280.365 247.922 280.989 247.844 281.625C248.49 281.713 249.144 281.722 249.792 281.652C253.239 280.856 256.674 280.018 260.099 279.139C265.768 277.655 271.435 276.138 277.101 274.591C279.3 274.002 281.204 273.865 282.806 276.13C284.755 278.894 287.163 281.324 289.237 284.011C290.642 285.838 290.218 287.372 287.937 288.122C283.792 289.481 279.647 290.841 275.464 292.086C263.046 295.794 250.665 299.639 238.156 303.005C236.746 303.31 235.434 303.959 234.335 304.895C233.237 305.83 232.388 307.023 231.862 308.367C226.046 320.681 220.111 332.928 214.057 345.106C213.058 347.116 213.295 348.026 215.295 348.962C222.94 352.521 230.648 355.99 238.114 359.919C243.977 363.004 249.585 366.611 255.136 370.255C256.123 370.906 256.779 372.97 256.617 374.251C256.372 376.234 254.569 377.017 252.576 376.929C248.884 376.784 245.12 377.024 241.537 376.329C231.005 374.371 220.483 372.256 210.08 369.715C206.985 368.955 206.343 369.947 205.607 372.363C203.107 380.492 200.353 388.543 197.924 396.69C195.569 404.569 193.358 412.437 191.438 420.404C190.716 423.394 189.962 427.081 191.08 429.644C192.859 433.246 195.402 436.417 198.533 438.935C206.665 445.87 216.297 449.826 226.793 451.787C232.773 452.93 233.706 452.614 236.386 446.932C241.649 435.815 246.597 424.526 251.97 413.46C262.747 391.3 273.64 369.199 284.649 347.157C295.741 324.932 306.952 302.768 318.281 280.665C319.54 278.204 319.377 276.967 316.945 275.459C310.998 271.76 305.211 267.784 299.429 263.799C299.022 263.497 298.689 263.105 298.457 262.655C298.225 262.205 298.098 261.707 298.088 261.2C298.222 260.469 299.443 259.673 300.355 259.414C307.105 257.723 313.878 256.172 320.641 254.557C323.486 253.89 326.348 253.233 329.154 252.393C330.172 252.071 331.081 251.472 331.78 250.665C338.408 242.644 344.916 234.532 351.553 226.516C362.627 213.176 373.668 199.793 384.912 186.597C396.922 172.516 409.196 158.656 421.261 144.618C424.567 140.753 427.517 136.683 430.563 132.668C431.877 130.932 431.422 129.7 429.23 129.277C428.201 128.906 427.127 128.674 426.036 128.588C418.713 129.071 411.281 129.064 404.112 130.421C392.692 132.581 381.38 135.414 370.141 138.521C362.516 140.608 355.098 143.496 347.655 146.208C344.418 147.383 341.279 148.809 338.264 150.474C328.78 155.711 319.947 162.049 311.948 169.355C308.25 172.74 303.744 175.785 301.36 179.974C292.182 196.13 283.706 212.69 274.976 229.092L275.438 229.371ZM607.57 507.441C604.156 505.875 601.548 506.112 598.561 508.106C593.577 511.418 588.328 514.311 583.37 517.637C574.878 523.346 566.386 529.055 558.217 535.204C554.295 538.348 550.72 541.9 547.55 545.8C546.501 546.959 545.925 548.469 545.935 550.031C545.946 551.594 546.543 553.096 547.608 554.24C549.146 555.922 550.839 557.456 552.664 558.822C558.06 562.815 563.343 566.905 566.852 572.787C571.178 579.996 575.418 587.271 579.715 594.509C583.158 600.345 586.634 606.151 590.143 611.926C593.182 616.983 596.088 617.91 601.503 615.31C610.44 611.012 619.395 606.76 628.19 602.207C633.942 599.224 639.54 595.909 644.996 592.419C655.534 585.686 665.937 578.748 676.355 571.842C679.188 570.084 681.876 568.103 684.395 565.918C690.035 560.688 695.571 555.339 700.909 549.795C709.137 541.243 717.337 532.641 725.187 523.744C731.859 516.188 738.107 508.225 744.598 500.483C750.708 493.378 755.281 485.084 758.026 476.124C763.043 459.194 763.082 441.907 760.531 424.627C759.382 416.896 757.283 409.311 755.65 401.659C755.506 401.01 755.674 400.299 755.584 399.635C755.452 398.623 755.517 397.01 754.947 396.738C754.421 396.53 753.857 396.439 753.293 396.472C752.729 396.506 752.179 396.663 751.682 396.932C745.31 401.209 738.854 405.391 732.793 410.09C725.969 415.388 719.67 421.439 712.844 426.782C705.421 432.6 697.701 438.05 690.029 443.539C677.547 452.499 665.048 461.287 652.533 470.123C643.78 476.305 635.029 482.442 626.246 488.594C625.835 488.979 625.479 489.419 625.191 489.902C625.629 490.237 626.088 490.545 626.565 490.822C631.83 493.562 637.219 496.108 642.359 499.086C647.498 502.065 651.292 506.553 655.159 511.095C660.228 516.72 664.517 523.003 667.909 529.772C668.599 531.396 668.911 533.155 668.818 534.917C668.827 535.472 668.707 536.021 668.467 536.522C668.227 537.023 667.875 537.461 667.437 537.803C666.999 538.144 666.488 538.379 665.944 538.49C665.4 538.601 664.838 538.584 664.302 538.44C662.582 538.059 660.946 537.368 659.473 536.403C651.436 530.943 643.492 525.363 633.957 518.738C626.262 515.427 616.806 511.665 607.57 507.441ZM412.001 301.518C417.787 304.755 423.587 303.67 429.072 301.27C435.85 298.201 441.835 293.617 446.564 287.872C452.689 280.623 458.059 272.742 463.767 265.137C464.816 263.577 465.957 262.08 467.185 260.656C471.067 256.592 475.072 252.635 479.013 248.629C486.499 241.023 493.93 233.373 501.442 225.782C506.989 220.174 512.677 214.682 518.356 209.186C526.164 201.662 533.908 194.089 541.829 186.688C546.651 182.197 551.583 177.794 556.769 173.732C564.177 167.941 571.896 162.571 579.494 156.911C580.947 155.834 582.24 154.536 583.602 153.336C582.142 152.389 580.608 151.561 579.015 150.861C573.083 148.776 567.045 146.953 561.13 144.819C552.648 141.77 544.232 138.527 535.781 135.403C531.924 133.985 528.008 132.728 524.129 131.366C519.645 129.793 515.252 127.881 510.669 126.679C502.729 124.612 494.654 124.799 486.492 125.756C476.652 126.962 467.116 129.961 458.358 134.605C446.553 140.851 436.038 149.277 427.37 159.438C422.34 165.171 417.558 171.093 412.751 177.059C405.027 186.617 397.066 196.005 389.797 205.896C381.861 216.682 374.546 227.932 367.081 239.061C364.347 243.117 361.761 247.536 362.958 252.603C363.966 256.857 365.109 261.316 367.423 264.869C370.875 270.242 374.967 275.175 379.61 279.561C385.628 285.137 392.424 289.846 398.271 294.458C403.348 297.065 407.748 299.144 412.001 301.518ZM492.916 778.869C486.751 776.926 480.495 775.242 474.327 773.286C468.945 771.588 463.668 769.568 458.296 767.853C451.839 765.776 445.294 763.972 438.847 761.878C431.693 759.549 424.628 756.948 417.489 754.593C410.578 752.323 403.606 750.238 396.674 748.025C392.32 746.666 388.05 745.102 383.689 743.796C380.678 742.89 380.23 743.427 380.498 746.423C380.766 749.418 380.942 752.453 380.942 755.513C380.952 758.255 380.566 761.184 377.686 762.293C374.806 763.401 372.689 761.267 371.164 759.209C366.38 752.775 361.869 746.129 357.114 739.665C355.929 737.991 354.421 736.57 352.678 735.488C346.226 731.763 339.619 728.306 333.117 724.668C317.675 716.014 302.256 707.335 286.859 698.63C284.91 697.505 283.74 697.072 282.099 699.415C278.983 703.852 274.76 704.647 270.469 701.858C267.871 700.224 265.529 698.214 263.52 695.894C258.373 689.689 253.53 683.198 245.862 679.799C244.671 679.088 243.534 678.289 242.462 677.408C232.044 670.632 221.512 664.054 211.27 657.033C207.966 654.756 204.752 653.524 200.813 653.986C199.023 654.248 197.215 654.363 195.407 654.329C193.392 654.239 192.715 654.992 193.482 656.763C195.446 661.361 197.015 666.285 199.685 670.459C203.415 676.111 207.555 681.48 212.072 686.525C217.103 692.27 222.497 697.728 227.924 703.067C234.939 709.958 242.062 716.761 249.358 723.363C256.239 729.645 263.419 735.569 270.555 741.548C271.536 742.299 272.756 742.667 273.988 742.583C283.424 741.6 287.503 743.955 291.351 752.85C292.225 754.856 292.9 756.447 295.66 757.266C307.273 760.692 318.651 764.905 330.231 768.427C338.514 770.9 346.919 772.923 355.347 774.926C362.097 776.514 368.917 777.761 375.708 779.199C388.007 781.804 400.472 783.557 413.013 784.444C424.216 785.22 435.385 786.414 446.591 787.145C456.338 787.784 466.11 788.357 475.903 788.376C485.156 788.349 494.461 787.613 503.711 787.111C505.193 786.875 506.648 786.492 508.054 785.969L504.29 782.988C500.746 781.646 496.877 780.128 492.916 778.869ZM194.574 470.112C193.361 469.673 192.119 469.318 190.856 469.051C185.292 467.49 184.209 468.065 182.881 473.684C181.121 481.074 179.257 488.462 177.846 495.926C175.271 509.566 172.997 523.265 170.586 536.941C169.862 541.015 169.177 545.1 168.299 549.142C168.125 549.943 167.134 551.16 166.552 551.148C166.042 551.068 165.554 550.886 165.116 550.614C164.679 550.341 164.3 549.983 164.004 549.561C163.303 548.481 162.797 547.286 162.509 546.031C160.599 538.958 158.939 531.834 158.61 524.404C158.305 515.23 159.415 506.064 161.899 497.227C163.837 490.09 166.366 483.11 168.516 476.026C168.772 474.992 168.668 473.902 168.222 472.934C166.996 470.405 165.615 467.954 164.089 465.594C158.088 456.448 149.358 451.108 139.038 448.244C135.631 447.305 133.635 448.762 133.372 452.317C132.591 462.709 131.861 473.095 131.34 483.476C131.011 489.867 131.244 496.283 130.914 502.675C130.14 515.829 131.023 529.028 133.542 541.962C134.235 545.422 135.095 548.852 135.761 552.319C137.538 561.555 140.867 570.422 145.607 578.546C147.546 581.695 149.776 584.656 152.267 587.391C156.35 592.058 160.468 596.745 164.851 601.134C167.417 603.77 170.214 606.425 173.417 608.077C177.746 610.3 182.122 608.219 183.399 603.587C185.369 596.376 186.792 589.011 188.6 581.74C191.392 570.443 194.15 559.126 197.195 547.893C201.23 532.903 207.838 518.878 214.047 504.703C216.459 499.167 217.998 493.301 219.984 487.6C220.311 486.869 220.36 486.043 220.121 485.278C219.883 484.513 219.373 483.861 218.688 483.445C215.624 481.272 212.551 479.094 209.178 476.697C204.52 474.585 199.568 472.303 194.574 470.112ZM247.533 240.384L255.438 226.692C260.553 217.833 265.737 209.013 270.714 200.074C272.188 197.379 273.351 194.525 274.181 191.568C275.073 188.503 274.351 187.694 271.486 188.857C266.105 190.9 260.909 193.402 255.957 196.334C244.577 203.505 234.728 212.564 225.483 222.376C216.749 231.596 209.058 241.751 202.55 252.657C194.478 266.457 187.629 280.936 182.081 295.93C181.421 297.673 181.941 299.913 182.094 301.907C182.307 304.339 183.032 306.744 183.012 309.158C182.942 319.279 179.309 328.393 174.382 336.945C168.192 347.667 164.814 359.318 162.31 371.256C159.972 382.365 157.796 393.534 156.355 404.769C155.551 411.001 156.251 417.41 156.564 423.768C156.696 424.486 156.989 425.164 157.422 425.752C157.855 426.34 158.415 426.822 159.061 427.162C162.116 428.494 165.299 429.508 168.562 430.187C170.474 430.575 171.991 429.488 172.444 427.163C173.152 423.576 174.108 420.041 175.121 416.526C177.164 408.988 179.298 401.491 181.407 393.979C184.309 383.611 186.826 373.113 190.234 362.91C194.211 350.98 198.495 339.101 203.523 327.593C210.666 311.221 218.325 295.054 226.339 279.093C232.943 265.955 240.374 253.225 247.443 240.32L247.533 240.384ZM153.988 345.17C151.052 351.754 147.644 358.158 145.3 364.957C142.095 373.983 139.398 383.182 137.222 392.509C135.066 402.003 134.1 411.757 132.275 421.338C131.623 424.807 133.208 425.722 135.912 426.717C138.152 427.537 138.835 426.696 139.045 424.751C139.837 417.54 140.469 410.284 141.407 403.101C143.531 386.302 147.984 370.028 152.623 353.793C153.412 351.027 154.17 348.254 154.95 345.483L153.988 345.17ZM460.808 486.702C452.495 482.999 445.817 482.666 438.727 489.207C436.844 490.949 435.101 492.887 433.234 494.58C426.822 500.427 420.363 506.214 413.916 512.041C405.839 519.41 397.885 526.907 389.699 534.166C379.893 542.869 369.949 551.435 359.97 559.957C349.284 569.087 338.496 578.112 327.717 587.143C323.204 590.958 318.549 594.621 314.062 598.473C313.729 598.814 313.483 599.229 313.342 599.684C313.202 600.14 313.172 600.621 313.255 601.09C315.474 605.45 317.946 609.677 320.658 613.748C323.996 618.527 327.895 622.914 331.437 627.558C333.09 629.736 333.726 632.193 331.942 634.684C330.157 637.176 327.481 637.351 325.016 636.679C320.752 635.514 316.566 634.081 312.483 632.387C302.863 628.369 294.894 621.793 286.896 615.305C285.319 614.037 284.341 613.53 282.426 615.207C278.057 619.036 273.126 622.216 268.777 626.068C262.788 631.362 256.568 636.536 253.38 644.256C251.521 648.737 253.434 655.164 257.758 657.314C260.716 658.791 264.037 659.519 267.11 660.797C273.798 663.573 280.417 666.528 287.095 669.322C290.231 670.796 293.481 672.016 296.813 672.969C305.329 674.999 313.612 673.073 321.091 669.319C329.461 665.122 337.125 659.547 345.265 654.848C348.263 653.114 347.689 651.628 346.352 649.205C343.799 644.486 341.513 639.587 339.308 634.746C338.465 632.885 338.19 630.382 340.249 629.516C341.141 629.208 342.091 629.103 343.028 629.209C343.966 629.315 344.868 629.629 345.669 630.128C350.214 633.456 354.452 637.196 358.691 640.914C360.857 642.822 362.778 644.093 365.63 641.975C367.915 640.458 370.282 639.069 372.721 637.813C384.07 631.156 395.415 624.492 406.756 617.822C412.049 614.655 417.547 611.732 422.611 608.201C427.193 605.004 431.32 601.116 435.672 597.578C444.838 590.115 454.02 582.664 463.218 575.227C474.568 565.949 485.824 556.513 497.433 547.546C504.32 542.215 505.711 534.566 503.237 527.652C500.762 520.739 495.924 515.579 491.557 510.263C484.698 501.903 476.012 495.307 466.513 489.961C464.667 488.779 462.763 487.691 460.808 486.702ZM523.946 569.343C518.238 569.935 512.903 572.455 508.818 576.485C504.952 580.142 501.389 584.113 497.549 587.785C491.136 593.932 484.777 600.145 478.092 605.985C469.785 613.232 461.36 620.365 452.65 627.091C445.748 632.496 438.533 637.488 431.041 642.039C420.696 648.237 410.174 654.183 399.307 659.444C391.415 663.294 382.911 665.843 374.703 669.119C365.256 672.902 355.79 676.778 346.477 680.928C342.811 682.569 339.376 684.686 336.261 687.223C331.503 691.104 331.946 693.877 337.236 696.954C345.758 701.874 354.169 706.985 362.792 711.709C365.096 712.959 368.061 713.204 370.779 713.456C372.814 713.518 374.849 713.315 376.832 712.852C383.081 711.749 389.307 710.505 395.556 709.402C402.28 708.215 409.029 707.204 415.743 705.976C423.431 704.561 431.135 703.316 438.748 701.43C446.51 699.589 454.168 697.338 461.693 694.689C471.272 691.236 480.661 687.235 490.04 683.25C496.724 680.412 503.396 677.497 509.812 674.124C520.397 668.549 530.831 662.657 541.24 656.75C548.763 652.479 556.291 648.119 563.5 643.413C565.556 642.072 567.048 639.388 568.034 637.001C570.069 632.056 569.309 626.952 567.375 622.141C565.226 616.412 562.717 610.825 559.863 605.413C556.326 599.077 552.359 592.991 547.99 587.197C543.482 581.245 538.718 575.377 532.223 570.946C529.466 570.382 526.637 569.141 523.949 569.379L523.946 569.343ZM386.969 355.274L401.579 329.969C402.329 328.67 402.709 327.712 401.102 326.495C393.468 320.737 386.108 314.605 378.347 309.028C371.187 303.889 363.736 299.114 356.203 294.522C352.862 292.584 349.293 291.066 345.578 290.005C342.394 289.02 339.012 289.378 336.825 292.387C332.989 297.551 328.778 302.544 325.704 308.148C319.874 318.766 314.678 329.726 309.286 340.585C302.322 354.647 295.519 368.79 288.661 382.948C284.724 391.067 280.908 399.257 276.945 407.361C276.184 408.919 276.405 409.577 277.802 410.696C281.797 413.882 285.616 417.282 289.243 420.881C290.19 421.82 290.529 423.933 290.294 425.379C289.967 427.326 288.141 428.108 286.181 427.924C281.905 427.51 277.58 427.242 273.368 426.438C271.556 426.096 270.776 426.466 270.142 427.924C266.472 436.382 262.709 444.798 259.156 453.313C257.72 456.721 257.734 460.216 260.945 462.694C267.663 467.878 274.364 473.132 281.439 477.817C285.002 480.186 289.378 481.327 293.368 483.157C299.088 485.789 302.497 485.564 306.61 480.86C310.643 476.096 314.379 471.088 317.797 465.864C327.217 451.847 336.384 437.671 345.766 423.619C350.435 416.593 355.191 409.616 359.972 402.654C360.944 401.251 360.704 400.466 359.616 399.111C356.13 394.789 352.933 390.206 349.679 385.683C349.208 384.926 348.845 384.106 348.602 383.248C347.355 379.607 349.067 376.982 352.871 377.134C355.576 377.212 358.26 377.629 360.861 378.375C364.059 379.435 367.188 380.697 370.226 382.154C372.053 382.989 373.004 382.603 373.986 380.861C378.661 372.544 383.483 364.312 388.253 356.05L386.969 355.274ZM258.206 597.898C257.461 599.189 256.637 600.456 255.971 601.769C255.056 603.654 255.324 605.01 257.829 604.551C259.645 604.226 261.406 603.556 263.233 603.052C269.177 601.496 273.429 597.392 277.946 593.568C284.859 587.594 292.047 581.883 299.067 576.005C307.228 569.17 315.328 562.3 323.48 555.46C328.16 551.534 332.912 547.684 337.592 543.758C346.113 536.599 354.592 529.393 363.116 522.248C369.829 516.621 376.527 511.019 383.279 505.426C391.835 498.272 400.38 491.112 408.913 483.945C414.179 479.526 419.664 475.325 424.604 470.568C426.738 468.55 428.377 466.067 429.395 463.312C430.412 460.557 430.781 457.605 430.472 454.684C429.929 448.066 426.291 442.686 422.127 438.319C416.469 432.339 409.704 427.336 403.061 422.381C399.423 419.84 395.496 417.74 391.363 416.124C388.585 414.935 385.975 415.576 383.719 418.223C380.483 421.949 377.03 425.48 373.376 428.798C362.995 438.358 353.568 448.747 345.902 460.625C338.58 471.986 331.103 483.258 324.275 494.904C310.554 518.309 297.387 542.034 282.11 564.495C276.983 572.043 271.766 579.531 266.461 586.96C263.806 590.658 260.826 594.1 257.969 597.669L258.206 597.898ZM258.095 497.93C254.629 496.957 250.985 496.794 247.445 497.453C243.905 498.112 240.564 499.576 237.68 501.731C236.439 502.62 234.855 503.564 234.32 504.849C228.003 520.031 221.785 535.255 215.665 550.521C211.895 559.891 208.212 569.311 204.615 578.781C201.321 587.445 197.976 595.999 199.787 605.762C201.284 613.751 206.215 618.63 212.734 622.117C216.203 623.97 220.389 624.539 224.308 625.451C224.791 625.468 225.272 625.367 225.708 625.159C226.144 624.95 226.523 624.639 226.813 624.253C228.455 621.309 229.802 618.196 231.314 615.177C239.016 599.717 246.112 583.906 254.624 568.903C263.136 553.899 272.918 539.616 282.422 525.196C284.969 521.343 284.659 518 282.449 514.588C278.935 509.095 273.658 505.414 268.073 500.908C265.17 500.016 261.663 498.87 258.104 497.935L258.095 497.93Z" fill="#FF4500"/>
</g>
<defs>
<clipPath id="clip0_2_38">
<rect width="684.74" height="654.52" fill="white" transform="translate(0.769501 593.131) rotate(-60)"/>
</clipPath>
</defs>
</svg>
